<svg version="1.2" xmlns="http://www.w3.org/2000/svg" viewBox="0 0 188 211" width="188" height="211">
	<style>
		.s0 { fill: #ffff00 } 
		.s1 { fill: #0000ff } 
		.s2 { fill: #ffa500 } 
	</style>
	<path id="Layer" fill-rule="evenodd" class="s0" d="m87.5 139.1v59.4c0 1.6-0.3 3.3-1 4.8-0.6 1.5-1.5 2.9-2.7 4-1.1 1.2-2.5 2.1-4 2.7-1.5 0.7-3.2 1-4.8 1h-25v-6.2h25q1.2-0.1 2.4-0.5 1.1-0.5 2-1.4 0.9-0.9 1.4-2 0.4-1.2 0.5-2.4v-59.4h-12.6c-1.2 0-2.4-0.2-3.5-0.7-1.2-0.5-2.2-1.2-3.1-2-0.8-0.9-1.5-1.9-2-3.1-0.5-1.1-0.7-2.3-0.7-3.5v-12.5h-34.4q-1.2 0-2.4 0.4-1.1 0.5-2 1.4-0.9 0.9-1.4 2-0.4 1.2-0.5 2.4v56.3h-6.2v-56.3c0-1.6 0.3-3.3 1-4.8 0.6-1.5 1.5-2.9 2.7-4 1.1-1.2 2.5-2.1 4-2.7 1.5-0.7 3.2-1 4.8-1h34.4zm-67.6 67.4q-0.2-0.3-0.3-0.6-0.1-0.4-0.2-0.7-0.1-0.4-0.1-0.7-0.1-0.4-0.1-0.8h4.8q0 0.4 0.2 0.7 0.1 0.4 0.3 0.7 0.2 0.3 0.5 0.6 0.3 0.2 0.6 0.4 0.6 0.5 1.5 0.7 0.9 0.3 2 0.3 1.6 0 2.6-0.4 0.2-0.1 0.5-0.2 0.2-0.2 0.4-0.3 0.2-0.2 0.4-0.4 0.1-0.1 0.3-0.3 0.1-0.2 0.2-0.5 0.1-0.2 0.2-0.4 0.1-0.2 0.1-0.5 0-0.2 0-0.5 0-0.3 0-0.5-0.1-0.3-0.2-0.6-0.1-0.3-0.3-0.5-0.2-0.2-0.4-0.4-1-0.7-2.9-1.2l-3.9-0.9q-0.4-0.1-0.9-0.2-0.4-0.2-0.8-0.3-0.5-0.2-0.9-0.4-0.4-0.2-0.8-0.4-0.3-0.2-0.6-0.5-0.3-0.2-0.6-0.5-0.3-0.3-0.5-0.7-0.3-0.3-0.4-0.6-0.2-0.4-0.4-0.8-0.1-0.4-0.2-0.8-0.1-0.4-0.2-0.9 0-0.4 0-0.8 0-2.3 1.2-4 1.2-1.7 3.3-2.6 2.1-1 4.8-1 2.9 0 4.9 1 2 0.9 3.1 2.5 1.1 1.6 1.3 3.6h-4.7q-0.1-0.2-0.1-0.4-0.1-0.3-0.2-0.5-0.1-0.2-0.2-0.4-0.1-0.2-0.3-0.3-0.1-0.2-0.3-0.4-0.2-0.1-0.4-0.3-0.2-0.1-0.4-0.2-0.2-0.2-0.4-0.3-0.3-0.1-0.6-0.2-0.3 0-0.5-0.1-0.3 0-0.6-0.1-0.3 0-0.6 0-2.1 0-3.2 1-0.3 0.2-0.5 0.4-0.2 0.3-0.4 0.6-0.1 0.3-0.2 0.7-0.1 0.3-0.1 0.7 0 1.1 0.9 1.8 0.3 0.3 0.6 0.4 0.3 0.2 0.6 0.3 0.3 0.2 0.7 0.3 0.3 0.1 0.6 0.1l3.9 0.9q2.1 0.5 3.6 1.4 1.5 0.8 2.3 2.2 0.8 1.4 0.8 3.5 0 2.3-1.1 4.1-0.3 0.4-0.7 0.9-0.4 0.4-0.8 0.7-0.4 0.4-0.9 0.6-0.5 0.3-1 0.5-2.2 1-5.4 1-2.3 0-4.1-0.5-0.4-0.2-0.8-0.3-0.4-0.2-0.8-0.4-0.4-0.2-0.7-0.4-0.4-0.3-0.7-0.5-0.3-0.3-0.5-0.5-0.3-0.3-0.5-0.6-0.3-0.3-0.5-0.6-0.2-0.3-0.3-0.7zm-19.4-0.2q-0.1-0.3-0.2-0.7-0.1-0.3-0.2-0.7-0.1-0.4-0.1-0.7 0-0.4 0-0.8h4.8q0 0.2 0 0.5 0 0.2 0.1 0.4 0 0.2 0.1 0.4 0.1 0.2 0.2 0.4 0.2 0.4 0.5 0.7 0.3 0.3 0.7 0.5 0.4 0.2 0.8 0.3 0.4 0.1 0.9 0 1.7 0 2.6-1 0.9-1 0.9-2.9v-17.1h4.9v17q0 4.1-2.2 6.3-2.3 2.1-6.2 2.1-0.4 0-0.9 0-0.5 0-0.9-0.1-0.4-0.1-0.9-0.2-0.4-0.1-0.8-0.3-0.4-0.1-0.7-0.3-0.4-0.2-0.7-0.4-0.3-0.2-0.6-0.4-0.3-0.3-0.6-0.5-0.2-0.3-0.5-0.6-0.2-0.3-0.4-0.6-0.2-0.3-0.3-0.6-0.2-0.3-0.3-0.7z"/>
	<path id="Layer" fill-rule="evenodd" class="s1" d="m187.5 79.1v59.4c0 1.6-0.3 3.3-1 4.8-0.6 1.5-1.5 2.9-2.7 4-1.1 1.2-2.5 2.1-4 2.7-1.5 0.7-3.2 1-4.8 1h-6.3v-6.2h6.3q1.2-0.1 2.4-0.5 1.1-0.5 2-1.4 0.9-0.9 1.4-2 0.4-1.2 0.5-2.4v-59.4h-12.6c-1.2 0-2.4-0.2-3.5-0.7-1.2-0.5-2.2-1.2-3.1-2-0.8-0.9-1.5-1.9-2-3.1-0.5-1.1-0.7-2.3-0.7-3.5v-12.5h-34.4q-1.2 0-2.4 0.4-1.1 0.5-2 1.4-0.9 0.9-1.4 2-0.4 1.2-0.5 2.4v56.3h-6.2v-56.3c0-1.6 0.3-3.3 1-4.8 0.6-1.5 1.5-2.9 2.7-4 1.1-1.2 2.5-2.1 4-2.7 1.5-0.7 3.2-1 4.8-1h34.4zm-61.5 64.6q0.1 0.4 0.2 0.7 0.1 0.4 0.3 0.7 0.2 0.3 0.5 0.6 0.3 0.2 0.6 0.4 0.2 0.2 0.3 0.3 0.2 0.1 0.4 0.2 0.2 0 0.4 0.1 0.2 0.1 0.4 0.2 0.9 0.2 2 0.2 1.6 0 2.6-0.4 0.3-0.1 0.5-0.2 0.2-0.2 0.4-0.3 0.2-0.2 0.4-0.4 0.2-0.1 0.3-0.3 0.1-0.2 0.2-0.5 0.1-0.2 0.2-0.4 0.1-0.2 0.1-0.5 0-0.2 0-0.5 0.1-0.2 0-0.5-0.1-0.3-0.2-0.6-0.1-0.3-0.3-0.5-0.2-0.2-0.4-0.4-1-0.7-2.9-1.2l-3.9-0.9q-1.9-0.4-3.3-1.3-1.5-0.9-2.2-2.3-0.8-1.4-0.8-3.3 0-2.3 1.2-4 1.2-1.7 3.3-2.6 2.1-1 4.8-1 0.7 0 1.3 0.1 0.6 0 1.2 0.1 0.6 0.2 1.2 0.3 0.6 0.2 1.2 0.5 0.5 0.2 0.9 0.5 0.4 0.2 0.8 0.6 0.4 0.3 0.8 0.7 0.3 0.3 0.6 0.8 0.3 0.3 0.5 0.8 0.2 0.4 0.4 0.8 0.2 0.5 0.3 0.9 0.1 0.5 0.1 1h-4.7q0-0.2-0.1-0.4-0.1-0.3-0.2-0.5-0.1-0.2-0.2-0.4-0.1-0.2-0.3-0.3-0.1-0.2-0.3-0.4-0.2-0.1-0.4-0.3-0.1-0.1-0.4-0.2-0.2-0.2-0.4-0.3-1-0.4-2.3-0.4-2 0-3.2 1-1.2 0.9-1.2 2.4 0 0.2 0.1 0.5 0 0.3 0.2 0.5 0.1 0.3 0.3 0.5 0.1 0.2 0.3 0.3 0.3 0.2 0.6 0.4 0.3 0.2 0.6 0.3 0.4 0.2 0.7 0.3 0.3 0.1 0.7 0.1l3.8 0.9q0.5 0.1 1 0.3 0.4 0.1 0.9 0.3 0.4 0.1 0.8 0.3 0.5 0.2 0.9 0.5 0.3 0.1 0.7 0.4 0.3 0.2 0.6 0.5 0.3 0.3 0.6 0.6 0.2 0.3 0.4 0.7 0.9 1.4 0.9 3.5 0 2.3-1.2 4.1-1.2 1.7-3.4 2.7-2.2 1-5.3 1-2.4 0-4.2-0.5-1.8-0.6-3-1.6-0.6-0.5-1-1.1-0.5-0.6-0.8-1.2-0.3-0.7-0.5-1.4-0.2-0.7-0.2-1.5zm-21-4q0 0.5 0.1 1 0 0.5 0.1 0.9 0 0.5 0.2 1 0.1 0.5 0.3 1 0.1 0.3 0.3 0.7 0.2 0.3 0.4 0.6 0.3 0.4 0.5 0.6 0.3 0.3 0.6 0.5 0.4 0.2 0.7 0.4 0.4 0.2 0.8 0.3 0.3 0.1 0.7 0.1 0.4 0.1 0.8 0.1 0.3 0 0.7-0.1 0.3 0 0.6-0.1 0.3 0 0.6-0.1 0.3-0.2 0.6-0.3 0.3-0.1 0.5-0.3 0.3-0.2 0.5-0.4 0.2-0.2 0.4-0.4 0.2-0.2 0.3-0.5 0.2-0.2 0.3-0.5 0.1-0.3 0.2-0.5 0.1-0.3 0.2-0.6 0-0.3 0.1-0.6h4.7v0.4q0 0.6-0.1 1.2-0.1 0.5-0.3 1.1-0.1 0.5-0.4 1-0.2 0.5-0.6 1-1.2 1.8-3.4 2.8-2.2 1-4.9 1-3.4 0-5.7-1.3-2.4-1.4-3.6-3.9-1.2-2.6-1.2-6.1v-3.2q0-3.5 1.2-6.1 1.3-2.5 3.6-3.9 2.3-1.4 5.7-1.4 0.5 0 1 0 0.4 0 0.9 0.1 0.5 0.1 1 0.2 0.4 0.1 0.9 0.3 0.4 0.1 0.8 0.3 0.4 0.2 0.8 0.4 0.4 0.2 0.7 0.5 0.4 0.2 0.7 0.5 0.7 0.5 1.2 1.2 0.5 0.7 0.9 1.5 0.4 0.8 0.6 1.6 0.2 0.8 0.2 1.7v0.5h-4.7q-0.1-0.4-0.1-0.7-0.1-0.3-0.2-0.6-0.1-0.3-0.2-0.6-0.1-0.2-0.3-0.5-0.1-0.3-0.3-0.5-0.2-0.2-0.4-0.4-0.2-0.3-0.5-0.4-0.2-0.2-0.5-0.3-1.1-0.7-2.5-0.7-0.4 0-0.8 0.1-0.3 0-0.7 0.1-0.4 0.2-0.8 0.3-0.3 0.2-0.6 0.4-0.4 0.2-0.6 0.5-0.3 0.3-0.6 0.6-0.2 0.3-0.4 0.7-0.2 0.3-0.3 0.7-0.7 1.6-0.7 4c0 0 0 3.1 0 3.1zm37.4 6.8q-0.2-0.3-0.3-0.6-0.1-0.4-0.2-0.7-0.1-0.4-0.2-0.7 0-0.4 0-0.8h4.8q0 0.4 0.2 0.7 0.1 0.4 0.3 0.7 0.2 0.3 0.5 0.6 0.2 0.2 0.5 0.4 0.7 0.5 1.6 0.7 0.9 0.3 2 0.3 1.5 0 2.6-0.4 0.2-0.1 0.4-0.2 0.3-0.2 0.5-0.3 0.2-0.2 0.3-0.4 0.2-0.1 0.4-0.3 0.1-0.2 0.2-0.5 0.1-0.2 0.2-0.4 0-0.2 0.1-0.5 0-0.2 0-0.5 0-0.3 0-0.5-0.1-0.3-0.2-0.6-0.1-0.3-0.3-0.5-0.2-0.2-0.4-0.4-1-0.7-2.9-1.2l-3.9-0.9q-0.5-0.1-0.9-0.2-0.4-0.2-0.8-0.3-0.5-0.2-0.9-0.4-0.4-0.2-0.8-0.4-0.3-0.2-0.6-0.5-0.3-0.2-0.6-0.5-0.3-0.3-0.5-0.7-0.3-0.3-0.5-0.6-0.2-0.4-0.3-0.8-0.2-0.4-0.3-0.8-0.1-0.4-0.1-0.9 0-0.4 0-0.8 0-2.3 1.2-4 1.1-1.7 3.2-2.6 2.2-1 4.9-1 2.9 0 4.9 1 2 0.9 3.1 2.6 1.1 1.5 1.2 3.5h-4.6q-0.1-0.2-0.2-0.4 0-0.3-0.1-0.5-0.1-0.2-0.2-0.4-0.2-0.2-0.3-0.3-0.1-0.2-0.3-0.4-0.2-0.1-0.4-0.3-0.2-0.1-0.4-0.2-0.2-0.2-0.4-0.3-0.3-0.1-0.6-0.2-0.3 0-0.6-0.1-0.3 0-0.6-0.1-0.2 0-0.5 0-2.1 0-3.2 1-0.3 0.2-0.5 0.4-0.3 0.3-0.4 0.6-0.2 0.3-0.2 0.7-0.1 0.3-0.1 0.7 0 1.1 0.9 1.8 0.3 0.3 0.6 0.4 0.3 0.2 0.6 0.3 0.3 0.2 0.7 0.3 0.3 0.1 0.6 0.1l3.9 0.9q2 0.5 3.5 1.4 1.5 0.8 2.4 2.2 0.8 1.4 0.8 3.5 0 2.3-1.1 4.1-0.4 0.4-0.7 0.9-0.4 0.4-0.8 0.7-0.5 0.4-0.9 0.6-0.5 0.3-1 0.5-2.2 1-5.4 1-2.4 0-4.1-0.5-0.4-0.2-0.8-0.3-0.4-0.2-0.8-0.4-0.4-0.2-0.7-0.4-0.4-0.3-0.7-0.5-0.3-0.3-0.6-0.5-0.2-0.3-0.4-0.6-0.3-0.3-0.5-0.6-0.2-0.3-0.3-0.7z"/>
	<path id="Layer" fill-rule="evenodd" class="s2" d="m81.5 28.1v40.6h-6.3v-40.6h-12.4c-1.3 0-2.5-0.2-3.6-0.7-1.2-0.5-2.2-1.2-3.1-2-0.8-0.9-1.5-1.9-2-3.1-0.5-1.1-0.7-2.3-0.7-3.6v-12.5h-34.4q-1.2 0.1-2.4 0.5-1.1 0.5-2 1.4-0.9 0.9-1.4 2-0.4 1.2-0.5 2.4v56.3h-6.2v-56.3c0-1.6 0.3-3.3 1-4.8 0.6-1.5 1.5-2.9 2.7-4 1.1-1.2 2.5-2.1 4-2.7 1.5-0.7 3.2-1 4.8-1h34.4zm-60.9 45.9v25h-4.9v-10.7h-10.5v10.7h-5v-25h5v10.2h10.5v-10.2c0 0 4.9 0 4.9 0zm14.1 4.2v20.8h-5v-20.8h-7v-4.2h19.1v4.2zm9.2 20.8v-25h5l7.1 16.3h0.2l7.1-16.3h5v25h-4.4v-16.6h-0.3l-5.9 13.5h-3.2l-6-13.5h-0.2v16.6zm33.9-4.2h10.6v4.2h-15.6v-25h4.9c0 0 0 20.8 0.1 20.8z"/>
</svg>